<?xml version="1.0" encoding="UTF-8"?>
<svg id="Layer_2" data-name="Layer 2" xmlns="http://www.w3.org/2000/svg" viewBox="0 0 284.64 36.11">
  <defs>
    <style>
      .cls-1 {
        fill: #fff;
      }
    </style>
  </defs>
  <g id="Waypoint_Logo" data-name="Waypoint Logo">
    <g>
      <g>
        <path d="M31.83.65l-2.11,18.13c-.19-.47-.38-.92-.59-1.34l-4.53-10.39h-8.25l-4.6,10.4c-.17.41-.35.84-.52,1.31L9.13.65H0l4.18,34.83h8.9l6.06-13.68c.51-1.1.97-2.17,1.37-3.2.02.06.05.12.07.17.34.86.75,1.85,1.23,3l6.07,13.71h8.9L40.96.65h-9.13Z"/>
        <path d="M55.05.65l-14.28,34.83h9.84l2.62-6.4h15l2.62,6.4h9.97L66.55.65h-11.5ZM64.71,20.49h-7.95l3.97-9.71,3.97,9.71Z"/>
        <path d="M95.57,10.92c-.61.99-1.21,2.06-1.79,3.18-.47-.93-1.07-1.99-1.84-3.21l-6.69-10.24h-10.72l14.62,22.63v12.2h9.23v-12.2L113,.65h-10.79l-6.64,10.27Z"/>
        <path d="M139.53.65h-24.45v34.83h9.23v-13.12h15.22c7.21,0,11.02-3.7,11.02-10.7s-3.81-11.02-11.02-11.02ZM141.31,11.02v.96c0,1.35-.43,1.79-1.79,1.79h-15.22v-4.53h15.22c1.35,0,1.79.43,1.79,1.79Z"/>
        <path d="M171.21,0c-5.19,0-9.54,1.72-12.94,5.12-3.4,3.4-5.12,7.75-5.12,12.94s1.72,9.54,5.12,12.94c3.4,3.4,7.75,5.12,12.94,5.12s9.54-1.72,12.94-5.12c3.4-3.4,5.12-7.75,5.12-12.94s-1.72-9.54-5.12-12.94c-3.4-3.4-7.75-5.12-12.94-5.12Z"/>
        <rect x="194.44" y=".65" width="9.23" height="34.83"/>
        <polygon points="236.04 20.45 218.25 .65 210.44 .65 210.44 35.48 219.67 35.48 219.67 15.67 237.47 35.48 245.28 35.48 245.28 .65 236.04 .65 236.04 20.45"/>
        <polygon points="249.8 .65 249.8 9.24 262.6 9.24 262.6 35.48 271.83 35.48 271.83 9.24 284.64 9.24 284.64 .65 249.8 .65"/>
      </g>
      <polygon class="cls-1" points="170 19.54 164.34 17.81 177.53 11.25 171.91 24.87 170 19.54"/>
    </g>
  </g>
</svg>