<?xml version="1.0" encoding="UTF-8"?>
<svg id="Layer_2" data-name="Layer 2" xmlns="http://www.w3.org/2000/svg" viewBox="0 0 247.2 247.2">
  <defs>
    <style>
      .cls-1 {
        fill: #262730;
      }

      .cls-2 {
        fill: #f7865b;
      }

      .cls-3 {
        fill: #f78154;
      }

      .cls-4 {
        fill: #28e291;
      }

      .cls-5 {
        fill: #9381ff;
      }
    </style>
  </defs>
  <g id="Waypoint_Logo" data-name="Waypoint Logo">
    <g>
      <polygon class="cls-1" points="225.87 4.74 21.14 4.74 4.74 21.14 4.74 225.87 21.34 242.46 226.07 242.46 242.46 226.07 242.46 21.34 225.87 4.74"/>
      <g>
        <path class="cls-4" d="M27.53,50.24h26.97v3.37h3.37v3.37h3.37v20.22h-3.37v3.37h-3.37v3.37h-16.85v16.85h-10.11v-50.56ZM47.76,70.46h3.37v-6.74h-3.37v-3.37h-10.11v13.48h10.11v-3.37Z"/>
        <path class="cls-4" d="M91.58,87.32h-13.48v13.48h-10.11v-37.08h3.37v-3.37h3.37v-3.37h3.37v-3.37h3.37v-3.37h6.74v3.37h3.37v3.37h3.37v3.37h3.37v3.37h3.37v37.08h-10.11v-13.48ZM78.09,77.2h13.48v-10.11h-3.37v-3.37h-6.74v3.37h-3.37v10.11Z"/>
        <path class="cls-4" d="M108.43,50.24h30.34v10.11h-10.11v40.45h-10.11v-40.45h-10.11v-10.11Z"/>
        <path class="cls-4" d="M165.74,87.32h3.37v-3.37h10.11v10.11h-3.37v3.37h-3.37v3.37h-20.22v-3.37h-3.37v-3.37h-3.37v-37.08h3.37v-3.37h3.37v-3.37h20.22v3.37h3.37v3.37h3.37v10.11h-10.11v-3.37h-3.37v-3.37h-6.74v3.37h-3.37v23.6h3.37v3.37h6.74v-3.37Z"/>
        <path class="cls-4" d="M209.56,80.57h-13.48v20.22h-10.11v-50.56h10.11v20.23h13.48v-20.23h10.11v50.56h-10.11v-20.22Z"/>
        <path class="cls-4" d="M46.07,164.37h-3.37v-6.74h-3.37v-6.74h-3.37v26.97h-10.11v-50.56h13.48v6.74h3.37v6.74h3.37v6.74h3.37v6.74h3.37v-26.97h10.11v50.56h-13.48v-6.74h-3.37v-6.74Z"/>
        <path class="cls-4" d="M69.67,134.04h3.37v-3.37h3.37v-3.37h20.22v3.37h3.37v3.37h3.37v37.08h-3.37v3.37h-3.37v3.37h-20.22v-3.37h-3.37v-3.37h-3.37v-37.08ZM89.89,164.37h3.37v-23.6h-3.37v-3.37h-6.74v3.37h-3.37v23.6h3.37v3.37h6.74v-3.37Z"/>
        <path class="cls-4" d="M110.12,127.3h30.34v10.11h-10.11v40.45h-10.11v-40.45h-10.11v-10.11Z"/>
        <path class="cls-4" d="M157.31,167.75h20.22v10.11h-30.34v-50.56h30.34v10.11h-20.22v10.11h16.85v10.11h-16.85v10.11Z"/>
        <path class="cls-4" d="M187.65,171.12h-3.37v-10.11h10.11v3.37h3.37v3.37h10.11v-3.37h3.37v-3.37h-3.37v-3.37h-16.85v-3.37h-3.37v-3.37h-3.37v-16.85h3.37v-3.37h3.37v-3.37h23.6v3.37h3.37v3.37h3.37v10.11h-10.11v-3.37h-3.37v-3.37h-10.11v3.37h-3.37v3.37h3.37v3.37h16.85v3.37h3.37v3.37h3.37v16.85h-3.37v3.37h-3.37v3.37h-23.6v-3.37h-3.37v-3.37Z"/>
      </g>
      <path class="cls-4" d="M242.26,14.83v-4.94h-4.94v-4.94h-4.94V0H14.83v4.94h-4.94v4.94h-4.94v4.94H0v217.54h4.94v4.94h4.94v4.94h4.94v4.94h217.54v-4.94h4.94v-4.94h4.94v-4.94h4.94V14.83h-4.94ZM237.31,24.72v168.1h-54.38v4.94h-4.94v4.94h-4.94v4.94h-4.94v4.94h-4.94v4.94h-4.94v4.94h-4.94v4.94h-4.94v4.94h-4.94v4.94H19.78v-4.94h-4.94v-4.94h-4.94V19.78h4.94v-4.94h4.94v-4.94h207.65v4.94h4.94v4.94h4.94v4.94ZM237.31,207.65v19.78h-4.94v4.94h-4.94v4.94h-69.22v-4.94h4.94v-4.94h4.94v-4.94h4.94v-4.94h4.94v-4.94h4.94v-4.94h4.94v-4.94h49.44v4.94Z"/>
      <rect class="cls-3" x="29.66" y="29.66" width="4.94" height="4.94"/>
      <rect class="cls-3" x="19.78" y="29.66" width="4.94" height="4.94"/>
      <rect class="cls-3" x="24.72" y="24.72" width="4.94" height="4.94"/>
      <rect class="cls-3" x="29.66" y="19.78" width="4.94" height="4.94"/>
      <rect class="cls-2" x="19.78" y="19.78" width="4.94" height="4.94"/>
      <rect class="cls-3" x="222.48" y="24.72" width="4.94" height="4.94"/>
      <rect class="cls-3" x="212.59" y="24.72" width="4.94" height="4.94"/>
      <rect class="cls-3" x="202.71" y="24.72" width="4.94" height="4.94"/>
      <polygon class="cls-5" points="34.61 222.48 34.61 217.54 29.66 217.54 24.72 217.54 24.72 222.48 19.78 222.48 19.78 227.43 24.72 227.43 29.66 227.43 34.61 227.43 39.55 227.43 39.55 222.48 34.61 222.48"/>
      <polygon class="cls-5" points="232.37 202.71 232.37 207.65 227.43 207.65 227.43 212.59 222.48 212.59 222.48 217.54 222.48 217.54 217.54 217.54 217.54 222.48 212.59 222.48 212.59 227.43 207.65 227.43 207.65 232.37 202.71 232.37 202.71 237.31 207.65 237.31 212.59 237.31 217.54 237.31 217.54 232.37 222.48 232.37 222.48 227.43 227.43 227.43 227.43 222.48 227.43 222.48 232.37 222.48 232.37 217.54 237.31 217.54 237.31 212.59 237.31 207.65 237.31 202.71 232.37 202.71"/>
      <polygon class="cls-5" points="44.5 202.71 44.5 197.76 39.55 197.76 34.61 197.76 29.66 197.76 24.72 197.76 24.72 202.71 19.78 202.71 19.78 207.65 24.72 207.65 29.66 207.65 34.61 207.65 39.55 207.65 44.5 207.65 49.44 207.65 49.44 202.71 44.5 202.71"/>
      <polygon class="cls-5" points="212.59 202.71 207.65 202.71 202.71 202.71 202.71 207.65 197.76 207.65 197.76 212.59 192.82 212.59 192.82 217.54 187.87 217.54 187.87 222.48 182.93 222.48 182.93 227.43 177.99 227.43 177.99 232.37 173.04 232.37 173.04 237.31 177.99 237.31 182.93 237.31 187.87 237.31 187.87 232.37 192.82 232.37 192.82 227.43 197.76 227.43 197.76 222.48 202.71 222.48 202.71 217.54 207.65 217.54 207.65 212.59 212.59 212.59 212.59 207.65 217.54 207.65 217.54 202.71 212.59 202.71"/>
    </g>
  </g>
</svg>